<?xml version="1.0" encoding="utf-8"?>
<svg xmlns="http://www.w3.org/2000/svg" xmlns:xlink="http://www.w3.org/1999/xlink" style="margin: auto; background: none; display: block; shape-rendering: auto;" width="200px" height="200px" viewBox="0 0 100 100" preserveAspectRatio="xMidYMid">
<g transform="translate(50 50)">
<g>
<animateTransform attributeName="transform" type="rotate" values="0;45" keyTimes="0;1" dur="0.2s" repeatCount="indefinite"></animateTransform><path d="M13.416407864998739 -12 L44.41640786499874 -12 L44.41640786499874 12 L13.416407864998739 12 A18 18 0 0 1 17.97211435474371 1.0015516062665677 L17.97211435474371 1.0015516062665677 L39.89242457152669 22.921861823049536 L22.921861823049547 39.892424571526675 L1.0015516062665688 17.97211435474371 A18 18 0 0 1 12.000000000000002 13.416407864998739 L12.000000000000002 13.416407864998739 L12.000000000000002 44.41640786499874 L-12.000000000000002 44.41640786499873 L-12.000000000000002 13.416407864998735 A18 18 0 0 1 -1.0015516062665666 17.97211435474371 L-1.0015516062665666 17.97211435474371 L-22.92186182304954 39.89242457152668 L-39.89242457152668 22.92186182304954 L-17.97211435474371 1.001551606266566 A18 18 0 0 1 -13.416407864998734 12.000000000000004 L-13.416407864998734 12.000000000000004 L-44.41640786499873 12.000000000000005 L-44.41640786499874 -12 L-13.416407864998739 -12.000000000000002 A18 18 0 0 1 -17.97211435474371 -1.0015516062665615 L-17.97211435474371 -1.0015516062665615 L-39.89242457152669 -22.921861823049532 L-22.921861823049547 -39.89242457152668 L-1.001551606266567 -17.97211435474371 A18 18 0 0 1 -12.000000000000005 -13.416407864998734 L-12.000000000000005 -13.416407864998734 L-12.00000000000001 -44.41640786499873 L11.999999999999995 -44.41640786499874 L12 -13.416407864998739 A18 18 0 0 1 1.0015516062665604 -17.97211435474371 L1.0015516062665604 -17.97211435474371 L22.921861823049532 -39.89242457152669 L39.89242457152668 -22.921861823049547 L17.97211435474371 -1.001551606266568 A18 18 0 0 1 13.416407864998732 -12.000000000000005 M0 -42A42 42 0 1 0 0 42 A42 42 0 1 0 0 -42" fill="#e6261f"></path></g></g>
<!-- [ldio] generated by https://loading.io/ --></svg>