<?xml version="1.0" encoding="utf-8"?>
<svg xmlns="http://www.w3.org/2000/svg" xmlns:xlink="http://www.w3.org/1999/xlink" style="margin: auto; background: none; display: block; shape-rendering: auto;" width="200px" height="200px" viewBox="0 0 100 100" preserveAspectRatio="xMidYMid">
<g transform="translate(50 50)">
<g>
<animateTransform attributeName="transform" type="rotate" values="0;15" keyTimes="0;1" dur="0.36764705882352944s" repeatCount="indefinite"></animateTransform><path d="M40.9878030638384 -23 L40.9878030638384 -23 L40.9878030638384 23 L40.9878030638384 23 A47 47 0 0 1 45.54401557956968 -11.607869954815742 L45.54401557956968 -11.607869954815742 L45.54401557956968 -11.607869954815742 L33.638339504853725 32.8247180544814 L33.638339504853725 32.8247180544814 A47 47 0 0 1 46.9964786985977 0.5753172448771073 L46.9964786985977 0.5753172448771073 L46.9964786985977 0.5753172448771073 L23.996478698597702 40.41248581896129 L23.996478698597702 40.41248581896129 A47 47 0 0 1 45.24620945966947 12.719297525088285 L45.24620945966947 12.719297525088285 L45.24620945966947 12.719297525088285 L12.719297525088281 45.24620945966947 L12.719297525088281 45.24620945966947 A47 47 0 0 1 40.41248581896129 23.99647869859769 L40.41248581896129 23.99647869859769 L40.41248581896129 23.99647869859769 L0.5753172448771208 46.99647869859769 L0.5753172448771208 46.99647869859769 A47 47 0 0 1 32.8247180544814 33.63833950485372 L32.8247180544814 33.63833950485372 L32.8247180544814 33.63833950485372 L-11.607869954815737 45.54401557956968 L-11.607869954815737 45.54401557956968 A47 47 0 0 1 23.000000000000004 40.98780306383839 L23.000000000000004 40.98780306383839 L23.000000000000004 40.98780306383839 L-23 40.98780306383839 L-23 40.98780306383839 A47 47 0 0 1 11.607869954815742 45.54401557956968 L11.607869954815742 45.54401557956968 L11.607869954815742 45.54401557956968 L-32.82471805448139 33.63833950485374 L-32.82471805448139 33.63833950485374 A47 47 0 0 1 -0.5753172448770941 46.9964786985977 L-0.5753172448770941 46.9964786985977 L-0.5753172448770941 46.9964786985977 L-40.41248581896128 23.996478698597702 L-40.41248581896128 23.996478698597702 A47 47 0 0 1 -12.719297525088276 45.24620945966947 L-12.719297525088276 45.24620945966947 L-12.719297525088276 45.24620945966947 L-45.24620945966947 12.719297525088285 L-45.24620945966947 12.719297525088285 A47 47 0 0 1 -23.996478698597677 40.412485818961294 L-23.996478698597677 40.412485818961294 L-23.996478698597677 40.412485818961294 L-46.99647869859769 0.5753172448771237 L-46.99647869859769 0.5753172448771237 A47 47 0 0 1 -33.63833950485372 32.82471805448141 L-33.63833950485372 32.82471805448141 L-33.63833950485372 32.82471805448141 L-45.54401557956968 -11.607869954815735 L-45.54401557956968 -11.607869954815735 A47 47 0 0 1 -40.98780306383839 23.000000000000007 L-40.98780306383839 23.000000000000007 L-40.98780306383839 23.000000000000007 L-40.9878030638384 -22.999999999999996 L-40.9878030638384 -22.999999999999996 A47 47 0 0 1 -45.54401557956968 11.607869954815765 L-45.54401557956968 11.607869954815765 L-45.54401557956968 11.607869954815765 L-33.63833950485374 -32.82471805448139 L-33.63833950485374 -32.82471805448139 A47 47 0 0 1 -46.9964786985977 -0.5753172448770912 L-46.9964786985977 -0.5753172448770912 L-46.9964786985977 -0.5753172448770912 L-23.996478698597723 -40.41248581896127 L-23.996478698597723 -40.41248581896127 A47 47 0 0 1 -45.24620945966948 -12.719297525088253 L-45.24620945966948 -12.719297525088253 L-45.24620945966948 -12.719297525088253 L-12.71929752508833 -45.24620945966946 L-12.71929752508833 -45.24620945966946 A47 47 0 0 1 -40.412485818961294 -23.996478698597677 L-40.412485818961294 -23.996478698597677 L-40.412485818961294 -23.996478698597677 L-0.5753172448771264 -46.99647869859769 L-0.5753172448771264 -46.99647869859769 A47 47 0 0 1 -32.82471805448142 -33.6383395048537 L-32.82471805448142 -33.6383395048537 L-32.82471805448142 -33.6383395048537 L11.60786995481571 -45.54401557956969 L11.60786995481571 -45.54401557956969 A47 47 0 0 1 -23.00000000000001 -40.987803063838385 L-23.00000000000001 -40.987803063838385 L-23.00000000000001 -40.987803063838385 L22.999999999999993 -40.9878030638384 L22.999999999999993 -40.9878030638384 A47 47 0 0 1 -11.607869954815769 -45.544015579569674 L-11.607869954815769 -45.544015579569674 L-11.607869954815769 -45.544015579569674 L32.82471805448139 -33.63833950485374 L32.82471805448139 -33.63833950485374 A47 47 0 0 1 0.5753172448770675 -46.9964786985977 L0.5753172448770675 -46.9964786985977 L0.5753172448770675 -46.9964786985977 L40.41248581896127 -23.996478698597727 L40.41248581896127 -23.996478698597727 A47 47 0 0 1 12.71929752508827 -45.24620945966947 L12.71929752508827 -45.24620945966947 L12.71929752508827 -45.24620945966947 L45.24620945966947 -12.71929752508829 L45.24620945966947 -12.71929752508829 A47 47 0 0 1 23.99647869859767 -40.4124858189613 L23.99647869859767 -40.4124858189613 L23.99647869859767 -40.4124858189613 L46.99647869859769 -0.5753172448771294 L46.99647869859769 -0.5753172448771294 A47 47 0 0 1 33.6383395048537 -32.82471805448143 L33.6383395048537 -32.82471805448143 L33.6383395048537 -32.82471805448143 L45.54401557956969 11.607869954815708 L45.54401557956969 11.607869954815708 A47 47 0 0 1 40.987803063838385 -23.00000000000001 M0 -29A29 29 0 1 0 0 29 A29 29 0 1 0 0 -29" fill="#420705"></path></g></g>
<!-- [ldio] generated by https://loading.io/ --></svg>