<?xml version="1.0" encoding="utf-8"?>
<svg xmlns="http://www.w3.org/2000/svg" xmlns:xlink="http://www.w3.org/1999/xlink" style="margin: auto; background: none; display: block; shape-rendering: auto;" width="200px" height="200px" viewBox="0 0 100 100" preserveAspectRatio="xMidYMid">
<g transform="translate(50 50)">
<g>
<animateTransform attributeName="transform" type="rotate" values="0;45" keyTimes="0;1" dur="0.29069767441860467s" repeatCount="indefinite"></animateTransform><path d="M29.287369291214944 -6.5 L46.287369291214944 -6.5 L46.287369291214944 6.5 L29.287369291214944 6.5 A30 30 0 0 1 25.305491506645296 16.113103351220175 L25.305491506645296 16.113103351220175 L37.3263067868166 28.133918631391484 L28.133918631391484 37.3263067868166 L16.113103351220175 25.305491506645296 A30 30 0 0 1 6.500000000000003 29.28736929121494 L6.500000000000003 29.28736929121494 L6.5000000000000036 46.287369291214944 L-6.499999999999997 46.287369291214944 L-6.499999999999998 29.287369291214944 A30 30 0 0 1 -16.11310335122018 25.305491506645293 L-16.11310335122018 25.305491506645293 L-28.133918631391488 37.3263067868166 L-37.3263067868166 28.13391863139149 L-25.30549150664529 16.113103351220182 A30 30 0 0 1 -29.287369291214944 6.499999999999997 L-29.287369291214944 6.499999999999997 L-46.287369291214944 6.499999999999999 L-46.287369291214944 -6.4999999999999885 L-29.287369291214944 -6.49999999999999 A30 30 0 0 1 -25.305491506645296 -16.113103351220175 L-25.305491506645296 -16.113103351220175 L-37.32630678681661 -28.13391863139148 L-28.133918631391495 -37.326306786816595 L-16.113103351220186 -25.30549150664529 A30 30 0 0 1 -6.499999999999999 -29.287369291214944 L-6.499999999999999 -29.287369291214944 L-6.500000000000002 -46.287369291214944 L6.499999999999986 -46.287369291214944 L6.4999999999999885 -29.287369291214944 A30 30 0 0 1 16.113103351220175 -25.305491506645296 L16.113103351220175 -25.305491506645296 L28.13391863139148 -37.32630678681661 L37.326306786816595 -28.133918631391495 L25.30549150664529 -16.113103351220186 A30 30 0 0 1 29.287369291214944 -6.500000000000001 M0 -25A25 25 0 1 0 0 25 A25 25 0 1 0 0 -25" fill="#e7c62b"></path></g></g>
<!-- [ldio] generated by https://loading.io/ --></svg>