<?xml version="1.0" encoding="utf-8"?>
<svg xmlns="http://www.w3.org/2000/svg" xmlns:xlink="http://www.w3.org/1999/xlink" style="margin: auto; background: none; display: block; shape-rendering: auto;" width="200px" height="200px" viewBox="0 0 100 100" preserveAspectRatio="xMidYMid">
<g transform="rotate(0 50 50)">
  <rect x="46.5" y="1.5" rx="3.5" ry="24.400000000000002" width="7" height="61" fill="#985d4e">
    <animate attributeName="opacity" values="1;0" keyTimes="0;1" dur="0.6578947368421053s" begin="-0.5980861244019139s" repeatCount="indefinite"></animate>
  </rect>
</g><g transform="rotate(32.72727272727273 50 50)">
  <rect x="46.5" y="1.5" rx="3.5" ry="24.400000000000002" width="7" height="61" fill="#e0dcb8">
    <animate attributeName="opacity" values="1;0" keyTimes="0;1" dur="0.6578947368421053s" begin="-0.5382775119617226s" repeatCount="indefinite"></animate>
  </rect>
</g><g transform="rotate(65.45454545454545 50 50)">
  <rect x="46.5" y="1.5" rx="3.5" ry="24.400000000000002" width="7" height="61" fill="#aca730">
    <animate attributeName="opacity" values="1;0" keyTimes="0;1" dur="0.6578947368421053s" begin="-0.47846889952153115s" repeatCount="indefinite"></animate>
  </rect>
</g><g transform="rotate(98.18181818181819 50 50)">
  <rect x="46.5" y="1.5" rx="3.5" ry="24.400000000000002" width="7" height="61" fill="#4f563b">
    <animate attributeName="opacity" values="1;0" keyTimes="0;1" dur="0.6578947368421053s" begin="-0.41866028708133973s" repeatCount="indefinite"></animate>
  </rect>
</g><g transform="rotate(130.9090909090909 50 50)">
  <rect x="46.5" y="1.5" rx="3.5" ry="24.400000000000002" width="7" height="61" fill="#9db189">
    <animate attributeName="opacity" values="1;0" keyTimes="0;1" dur="0.6578947368421053s" begin="-0.35885167464114837s" repeatCount="indefinite"></animate>
  </rect>
</g><g transform="rotate(163.63636363636363 50 50)">
  <rect x="46.5" y="1.5" rx="3.5" ry="24.400000000000002" width="7" height="61" fill="#60a363">
    <animate attributeName="opacity" values="1;0" keyTimes="0;1" dur="0.6578947368421053s" begin="-0.29904306220095694s" repeatCount="indefinite"></animate>
  </rect>
</g><g transform="rotate(196.36363636363637 50 50)">
  <rect x="46.5" y="1.5" rx="3.5" ry="24.400000000000002" width="7" height="61" fill="#2c8c14">
    <animate attributeName="opacity" values="1;0" keyTimes="0;1" dur="0.6578947368421053s" begin="-0.23923444976076558s" repeatCount="indefinite"></animate>
  </rect>
</g><g transform="rotate(229.0909090909091 50 50)">
  <rect x="46.5" y="1.5" rx="3.5" ry="24.400000000000002" width="7" height="61" fill="#0a4308">
    <animate attributeName="opacity" values="1;0" keyTimes="0;1" dur="0.6578947368421053s" begin="-0.17942583732057418s" repeatCount="indefinite"></animate>
  </rect>
</g><g transform="rotate(261.8181818181818 50 50)">
  <rect x="46.5" y="1.5" rx="3.5" ry="24.400000000000002" width="7" height="61" fill="#607c83">
    <animate attributeName="opacity" values="1;0" keyTimes="0;1" dur="0.6578947368421053s" begin="-0.11961722488038279s" repeatCount="indefinite"></animate>
  </rect>
</g><g transform="rotate(294.54545454545456 50 50)">
  <rect x="46.5" y="1.5" rx="3.5" ry="24.400000000000002" width="7" height="61" fill="#466277">
    <animate attributeName="opacity" values="1;0" keyTimes="0;1" dur="0.6578947368421053s" begin="-0.059808612440191394s" repeatCount="indefinite"></animate>
  </rect>
</g><g transform="rotate(327.27272727272725 50 50)">
  <rect x="46.5" y="1.5" rx="3.5" ry="24.400000000000002" width="7" height="61" fill="#985d4e">
    <animate attributeName="opacity" values="1;0" keyTimes="0;1" dur="0.6578947368421053s" begin="0s" repeatCount="indefinite"></animate>
  </rect>
</g>
<!-- [ldio] generated by https://loading.io/ --></svg>