<?xml version="1.0" encoding="utf-8"?>
<svg xmlns="http://www.w3.org/2000/svg" xmlns:xlink="http://www.w3.org/1999/xlink" style="margin: auto; background: none; display: block; shape-rendering: auto;" width="200px" height="200px" viewBox="0 0 100 100" preserveAspectRatio="xMidYMid">
<g transform="rotate(0 50 50)">
  <rect x="44.5" y="2.5" rx="5.5" ry="17.5" width="11" height="35" fill="#46221e">
    <animate attributeName="opacity" values="1;0" keyTimes="0;1" dur="2.941176470588235s" begin="-2.6960784313725488s" repeatCount="indefinite"></animate>
  </rect>
</g><g transform="rotate(30 50 50)">
  <rect x="44.5" y="2.5" rx="5.5" ry="17.5" width="11" height="35" fill="#812e23">
    <animate attributeName="opacity" values="1;0" keyTimes="0;1" dur="2.941176470588235s" begin="-2.450980392156863s" repeatCount="indefinite"></animate>
  </rect>
</g><g transform="rotate(60 50 50)">
  <rect x="44.5" y="2.5" rx="5.5" ry="17.5" width="11" height="35" fill="#b7402a">
    <animate attributeName="opacity" values="1;0" keyTimes="0;1" dur="2.941176470588235s" begin="-2.2058823529411766s" repeatCount="indefinite"></animate>
  </rect>
</g><g transform="rotate(90 50 50)">
  <rect x="44.5" y="2.5" rx="5.5" ry="17.5" width="11" height="35" fill="#404d2c">
    <animate attributeName="opacity" values="1;0" keyTimes="0;1" dur="2.941176470588235s" begin="-1.9607843137254901s" repeatCount="indefinite"></animate>
  </rect>
</g><g transform="rotate(120 50 50)">
  <rect x="44.5" y="2.5" rx="5.5" ry="17.5" width="11" height="35" fill="#6fa12b">
    <animate attributeName="opacity" values="1;0" keyTimes="0;1" dur="2.941176470588235s" begin="-1.7156862745098038s" repeatCount="indefinite"></animate>
  </rect>
</g><g transform="rotate(150 50 50)">
  <rect x="44.5" y="2.5" rx="5.5" ry="17.5" width="11" height="35" fill="#49772e">
    <animate attributeName="opacity" values="1;0" keyTimes="0;1" dur="2.941176470588235s" begin="-1.4705882352941175s" repeatCount="indefinite"></animate>
  </rect>
</g><g transform="rotate(180 50 50)">
  <rect x="44.5" y="2.5" rx="5.5" ry="17.5" width="11" height="35" fill="#243720">
    <animate attributeName="opacity" values="1;0" keyTimes="0;1" dur="2.941176470588235s" begin="-1.2254901960784315s" repeatCount="indefinite"></animate>
  </rect>
</g><g transform="rotate(210 50 50)">
  <rect x="44.5" y="2.5" rx="5.5" ry="17.5" width="11" height="35" fill="#ddc3d1">
    <animate attributeName="opacity" values="1;0" keyTimes="0;1" dur="2.941176470588235s" begin="-0.9803921568627451s" repeatCount="indefinite"></animate>
  </rect>
</g><g transform="rotate(240 50 50)">
  <rect x="44.5" y="2.5" rx="5.5" ry="17.5" width="11" height="35" fill="#b8898d">
    <animate attributeName="opacity" values="1;0" keyTimes="0;1" dur="2.941176470588235s" begin="-0.7352941176470588s" repeatCount="indefinite"></animate>
  </rect>
</g><g transform="rotate(270 50 50)">
  <rect x="44.5" y="2.5" rx="5.5" ry="17.5" width="11" height="35" fill="#46221e">
    <animate attributeName="opacity" values="1;0" keyTimes="0;1" dur="2.941176470588235s" begin="-0.49019607843137253s" repeatCount="indefinite"></animate>
  </rect>
</g><g transform="rotate(300 50 50)">
  <rect x="44.5" y="2.5" rx="5.5" ry="17.5" width="11" height="35" fill="#812e23">
    <animate attributeName="opacity" values="1;0" keyTimes="0;1" dur="2.941176470588235s" begin="-0.24509803921568626s" repeatCount="indefinite"></animate>
  </rect>
</g><g transform="rotate(330 50 50)">
  <rect x="44.5" y="2.5" rx="5.5" ry="17.5" width="11" height="35" fill="#b7402a">
    <animate attributeName="opacity" values="1;0" keyTimes="0;1" dur="2.941176470588235s" begin="0s" repeatCount="indefinite"></animate>
  </rect>
</g>
<!-- [ldio] generated by https://loading.io/ --></svg>