<?xml version="1.0" encoding="utf-8"?>
<svg xmlns="http://www.w3.org/2000/svg" xmlns:xlink="http://www.w3.org/1999/xlink" style="margin: auto; background: none; display: block; shape-rendering: auto;" width="200px" height="200px" viewBox="0 0 100 100" preserveAspectRatio="xMidYMid">
<g transform="rotate(0 50 50)">
  <rect x="46" y="8.5" rx="4" ry="35.5" width="8" height="71" fill="#83641d">
    <animate attributeName="opacity" values="1;0" keyTimes="0;1" dur="0.8474576271186441s" begin="-0.7768361581920904s" repeatCount="indefinite"></animate>
  </rect>
</g><g transform="rotate(30 50 50)">
  <rect x="46" y="8.5" rx="4" ry="35.5" width="8" height="71" fill="#c5b526">
    <animate attributeName="opacity" values="1;0" keyTimes="0;1" dur="0.8474576271186441s" begin="-0.7062146892655368s" repeatCount="indefinite"></animate>
  </rect>
</g><g transform="rotate(60 50 50)">
  <rect x="46" y="8.5" rx="4" ry="35.5" width="8" height="71" fill="#faf015">
    <animate attributeName="opacity" values="1;0" keyTimes="0;1" dur="0.8474576271186441s" begin="-0.635593220338983s" repeatCount="indefinite"></animate>
  </rect>
</g><g transform="rotate(90 50 50)">
  <rect x="46" y="8.5" rx="4" ry="35.5" width="8" height="71" fill="#799564">
    <animate attributeName="opacity" values="1;0" keyTimes="0;1" dur="0.8474576271186441s" begin="-0.5649717514124294s" repeatCount="indefinite"></animate>
  </rect>
</g><g transform="rotate(120 50 50)">
  <rect x="46" y="8.5" rx="4" ry="35.5" width="8" height="71" fill="#a4d1c1">
    <animate attributeName="opacity" values="1;0" keyTimes="0;1" dur="0.8474576271186441s" begin="-0.4943502824858757s" repeatCount="indefinite"></animate>
  </rect>
</g><g transform="rotate(150 50 50)">
  <rect x="46" y="8.5" rx="4" ry="35.5" width="8" height="71" fill="#4ca69d">
    <animate attributeName="opacity" values="1;0" keyTimes="0;1" dur="0.8474576271186441s" begin="-0.423728813559322s" repeatCount="indefinite"></animate>
  </rect>
</g><g transform="rotate(180 50 50)">
  <rect x="46" y="8.5" rx="4" ry="35.5" width="8" height="71" fill="#09908a">
    <animate attributeName="opacity" values="1;0" keyTimes="0;1" dur="0.8474576271186441s" begin="-0.3531073446327684s" repeatCount="indefinite"></animate>
  </rect>
</g><g transform="rotate(210 50 50)">
  <rect x="46" y="8.5" rx="4" ry="35.5" width="8" height="71" fill="#0b3231">
    <animate attributeName="opacity" values="1;0" keyTimes="0;1" dur="0.8474576271186441s" begin="-0.2824858757062147s" repeatCount="indefinite"></animate>
  </rect>
</g><g transform="rotate(240 50 50)">
  <rect x="46" y="8.5" rx="4" ry="35.5" width="8" height="71" fill="#0d504f">
    <animate attributeName="opacity" values="1;0" keyTimes="0;1" dur="0.8474576271186441s" begin="-0.211864406779661s" repeatCount="indefinite"></animate>
  </rect>
</g><g transform="rotate(270 50 50)">
  <rect x="46" y="8.5" rx="4" ry="35.5" width="8" height="71" fill="#080e0e">
    <animate attributeName="opacity" values="1;0" keyTimes="0;1" dur="0.8474576271186441s" begin="-0.14124293785310735s" repeatCount="indefinite"></animate>
  </rect>
</g><g transform="rotate(300 50 50)">
  <rect x="46" y="8.5" rx="4" ry="35.5" width="8" height="71" fill="#83641d">
    <animate attributeName="opacity" values="1;0" keyTimes="0;1" dur="0.8474576271186441s" begin="-0.07062146892655367s" repeatCount="indefinite"></animate>
  </rect>
</g><g transform="rotate(330 50 50)">
  <rect x="46" y="8.5" rx="4" ry="35.5" width="8" height="71" fill="#c5b526">
    <animate attributeName="opacity" values="1;0" keyTimes="0;1" dur="0.8474576271186441s" begin="0s" repeatCount="indefinite"></animate>
  </rect>
</g>
<!-- [ldio] generated by https://loading.io/ --></svg>