<svg xmlns="http://www.w3.org/2000/svg" class="spinner-4 w-10 h-10 shrink-0 animate-spin" viewBox="0 0 512 512">
        <path fill="#26e4ff" d="M256 65.831c-8.826 0-15.981-7.155-15.981-15.981V15.981C240.019 7.155 247.174 0 256 0s15.981 7.155 15.981 15.981V49.85c0 8.826-7.155 15.981-15.981 15.981z" data-original="#26e4ff" />
        <path fill="#5c32cf" d="M256 512c-8.826 0-15.981-7.155-15.981-15.981V462.15c0-8.826 7.155-15.981 15.981-15.981s15.981 7.155 15.981 15.981v33.869c0 8.826-7.155 15.981-15.981 15.981z" data-original="#5c32cf" />
        <path fill="#50f3ff" d="M160.916 91.309c-7.644 4.413-17.417 1.794-21.831-5.849l-16.934-29.331c-4.413-7.644-1.794-17.417 5.849-21.83 7.644-4.413 17.417-1.794 21.83 5.849l16.934 29.331c4.414 7.643 1.795 17.417-5.848 21.83z" data-original="#50f3ff" />
        <path fill="#0b6fff" d="M384 477.702c-7.644 4.413-17.417 1.794-21.831-5.849l-16.934-29.331c-4.413-7.644-1.794-17.417 5.849-21.831 7.644-4.413 17.417-1.794 21.831 5.849l16.934 29.331c4.414 7.645 1.795 17.418-5.849 21.831z" data-original="#0b6fff" />
        <path fill="#88fcff" d="M91.309 160.915c-4.413 7.644-14.187 10.263-21.831 5.849L40.147 149.83c-7.644-4.413-10.262-14.187-5.849-21.83 4.413-7.644 14.187-10.262 21.83-5.849l29.331 16.934c7.644 4.413 10.263 14.187 5.85 21.83z" data-original="#88fcff" />
        <path fill="#089bff" d="M477.702 384c-4.413 7.644-14.187 10.263-21.831 5.849l-29.331-16.934c-7.644-4.413-10.262-14.187-5.849-21.83 4.413-7.644 14.187-10.263 21.83-5.849l29.331 16.934c7.645 4.413 10.264 14.186 5.85 21.83z" data-original="#089bff" />
        <path fill="#bff" d="M65.831 256c0 8.826-7.155 15.981-15.981 15.981H15.981C7.155 271.981 0 264.826 0 256s7.155-15.981 15.981-15.981H49.85c8.826 0 15.981 7.155 15.981 15.981z" data-original="#bbffff" />
        <path fill="#06b9ff" d="M512 256c0 8.826-7.155 15.981-15.981 15.981H462.15c-8.826 0-15.981-7.155-15.981-15.981s7.155-15.981 15.981-15.981h33.869c8.826 0 15.981 7.155 15.981 15.981z" data-original="#06b9ff" />
        <path fill="#ab8eff" d="M91.309 351.084c4.413 7.644 1.794 17.417-5.849 21.831l-29.331 16.934c-7.644 4.413-17.417 1.794-21.83-5.849-4.413-7.644-1.794-17.417 5.849-21.83l29.331-16.934c7.643-4.414 17.417-1.795 21.83 5.848z" data-original="#ab8eff" />
        <path fill="#22d0ff" d="M477.703 128c4.413 7.644 1.794 17.417-5.849 21.831l-29.331 16.934c-7.644 4.413-17.417 1.794-21.83-5.849-4.413-7.644-1.794-17.417 5.849-21.83l29.331-16.934c7.643-4.414 17.416-1.796 21.83 5.848z" data-original="#22d0ff" />
        <path fill="#7a48ff" d="M160.915 420.691c7.644 4.413 10.263 14.187 5.849 21.831l-16.934 29.331c-4.413 7.644-14.187 10.262-21.83 5.849-7.644-4.413-10.262-14.187-5.849-21.83l16.934-29.331c4.413-7.644 14.187-10.263 21.83-5.85z" data-original="#7a48ff" />
        <path fill="#22d0ff" d="M384 34.298c7.644 4.413 10.263 14.187 5.849 21.831L372.915 85.46c-4.413 7.644-14.187 10.262-21.83 5.849-7.644-4.413-10.263-14.187-5.849-21.83l16.934-29.331c4.413-7.645 14.186-10.264 21.83-5.85z" data-original="#22d0ff" />
        <path fill="#26e4ff" d="M336.406 256c0 44.411-35.995 80.406-80.406 80.406-15.164 0-29.35-4.193-41.454-11.497-23.344-14.062-38.951-39.662-38.951-68.909 0-44.411 35.995-80.406 80.406-80.406 22.561 0 42.948 9.282 57.546 24.251 14.143 14.484 22.859 34.295 22.859 56.155z" data-original="#26e4ff" />
        <path fill="#22d0ff" d="M336.406 256c0 44.411-35.995 80.406-80.406 80.406-15.164 0-29.35-4.193-41.454-11.497 92.407-22.777 102.956-84.557 99-125.064 14.144 14.484 22.86 34.295 22.86 56.155z" data-original="#22d0ff" />
        <path fill="#00aa7f" d="M336.406 256H256v-80.406c22.561 0 42.948 9.282 57.546 24.251v.01c14.155 14.485 22.86 34.295 22.86 56.145z" data-original="#e8e6ed" />
        <path fill="#00aa7f" d="M306.551 256c7.809-19.532 8.612-39.61 6.995-56.145 14.155 14.484 22.86 34.295 22.86 56.145z" data-original="#d1d0d8" />
        <animateTransform
      attributeName="transform"
      attributeType="XML"
      type="rotate"
      from="0 0 0"
      to="360 0 0"
      dur="1s"
      repeatCount="indefinite" />
      </svg>
