<?xml version="1.0" encoding="utf-8"?>
<svg xmlns="http://www.w3.org/2000/svg" xmlns:xlink="http://www.w3.org/1999/xlink" style="margin: auto; background: none; display: block; shape-rendering: auto;" width="200px" height="200px" viewBox="0 0 100 100" preserveAspectRatio="xMidYMid">
<g transform="rotate(0 50 50)">
  <rect x="42.5" y="2" rx="7.5" ry="15" width="15" height="30" fill="#220b09">
    <animate attributeName="opacity" values="1;0" keyTimes="0;1" dur="1.6949152542372883s" begin="-1.6779661016949152s" repeatCount="indefinite"></animate>
  </rect>
</g><g transform="rotate(3.6 50 50)">
  <rect x="42.5" y="2" rx="7.5" ry="15" width="15" height="30" fill="#d34c31">
    <animate attributeName="opacity" values="1;0" keyTimes="0;1" dur="1.6949152542372883s" begin="-1.6610169491525424s" repeatCount="indefinite"></animate>
  </rect>
</g><g transform="rotate(7.2 50 50)">
  <rect x="42.5" y="2" rx="7.5" ry="15" width="15" height="30" fill="#e88432">
    <animate attributeName="opacity" values="1;0" keyTimes="0;1" dur="1.6949152542372883s" begin="-1.6440677966101696s" repeatCount="indefinite"></animate>
  </rect>
</g><g transform="rotate(10.8 50 50)">
  <rect x="42.5" y="2" rx="7.5" ry="15" width="15" height="30" fill="#ff312d">
    <animate attributeName="opacity" values="1;0" keyTimes="0;1" dur="1.6949152542372883s" begin="-1.6271186440677967s" repeatCount="indefinite"></animate>
  </rect>
</g><g transform="rotate(14.4 50 50)">
  <rect x="42.5" y="2" rx="7.5" ry="15" width="15" height="30" fill="#f5c037">
    <animate attributeName="opacity" values="1;0" keyTimes="0;1" dur="1.6949152542372883s" begin="-1.6101694915254237s" repeatCount="indefinite"></animate>
  </rect>
</g><g transform="rotate(18 50 50)">
  <rect x="42.5" y="2" rx="7.5" ry="15" width="15" height="30" fill="#e89788">
    <animate attributeName="opacity" values="1;0" keyTimes="0;1" dur="1.6949152542372883s" begin="-1.5932203389830508s" repeatCount="indefinite"></animate>
  </rect>
</g><g transform="rotate(21.6 50 50)">
  <rect x="42.5" y="2" rx="7.5" ry="15" width="15" height="30" fill="#fd3262">
    <animate attributeName="opacity" values="1;0" keyTimes="0;1" dur="1.6949152542372883s" begin="-1.576271186440678s" repeatCount="indefinite"></animate>
  </rect>
</g><g transform="rotate(25.2 50 50)">
  <rect x="42.5" y="2" rx="7.5" ry="15" width="15" height="30" fill="#f0c3a9">
    <animate attributeName="opacity" values="1;0" keyTimes="0;1" dur="1.6949152542372883s" begin="-1.5593220338983051s" repeatCount="indefinite"></animate>
  </rect>
</g><g transform="rotate(28.8 50 50)">
  <rect x="42.5" y="2" rx="7.5" ry="15" width="15" height="30" fill="#9d9aca">
    <animate attributeName="opacity" values="1;0" keyTimes="0;1" dur="1.6949152542372883s" begin="-1.5423728813559323s" repeatCount="indefinite"></animate>
  </rect>
</g><g transform="rotate(32.4 50 50)">
  <rect x="42.5" y="2" rx="7.5" ry="15" width="15" height="30" fill="#645481">
    <animate attributeName="opacity" values="1;0" keyTimes="0;1" dur="1.6949152542372883s" begin="-1.5254237288135593s" repeatCount="indefinite"></animate>
  </rect>
</g><g transform="rotate(36 50 50)">
  <rect x="42.5" y="2" rx="7.5" ry="15" width="15" height="30" fill="#220b09">
    <animate attributeName="opacity" values="1;0" keyTimes="0;1" dur="1.6949152542372883s" begin="-1.5084745762711864s" repeatCount="indefinite"></animate>
  </rect>
</g><g transform="rotate(39.6 50 50)">
  <rect x="42.5" y="2" rx="7.5" ry="15" width="15" height="30" fill="#d34c31">
    <animate attributeName="opacity" values="1;0" keyTimes="0;1" dur="1.6949152542372883s" begin="-1.4915254237288136s" repeatCount="indefinite"></animate>
  </rect>
</g><g transform="rotate(43.2 50 50)">
  <rect x="42.5" y="2" rx="7.5" ry="15" width="15" height="30" fill="#e88432">
    <animate attributeName="opacity" values="1;0" keyTimes="0;1" dur="1.6949152542372883s" begin="-1.4745762711864407s" repeatCount="indefinite"></animate>
  </rect>
</g><g transform="rotate(46.8 50 50)">
  <rect x="42.5" y="2" rx="7.5" ry="15" width="15" height="30" fill="#ff312d">
    <animate attributeName="opacity" values="1;0" keyTimes="0;1" dur="1.6949152542372883s" begin="-1.4576271186440677s" repeatCount="indefinite"></animate>
  </rect>
</g><g transform="rotate(50.4 50 50)">
  <rect x="42.5" y="2" rx="7.5" ry="15" width="15" height="30" fill="#f5c037">
    <animate attributeName="opacity" values="1;0" keyTimes="0;1" dur="1.6949152542372883s" begin="-1.4406779661016949s" repeatCount="indefinite"></animate>
  </rect>
</g><g transform="rotate(54 50 50)">
  <rect x="42.5" y="2" rx="7.5" ry="15" width="15" height="30" fill="#e89788">
    <animate attributeName="opacity" values="1;0" keyTimes="0;1" dur="1.6949152542372883s" begin="-1.423728813559322s" repeatCount="indefinite"></animate>
  </rect>
</g><g transform="rotate(57.6 50 50)">
  <rect x="42.5" y="2" rx="7.5" ry="15" width="15" height="30" fill="#fd3262">
    <animate attributeName="opacity" values="1;0" keyTimes="0;1" dur="1.6949152542372883s" begin="-1.4067796610169492s" repeatCount="indefinite"></animate>
  </rect>
</g><g transform="rotate(61.2 50 50)">
  <rect x="42.5" y="2" rx="7.5" ry="15" width="15" height="30" fill="#f0c3a9">
    <animate attributeName="opacity" values="1;0" keyTimes="0;1" dur="1.6949152542372883s" begin="-1.3898305084745763s" repeatCount="indefinite"></animate>
  </rect>
</g><g transform="rotate(64.8 50 50)">
  <rect x="42.5" y="2" rx="7.5" ry="15" width="15" height="30" fill="#9d9aca">
    <animate attributeName="opacity" values="1;0" keyTimes="0;1" dur="1.6949152542372883s" begin="-1.3728813559322033s" repeatCount="indefinite"></animate>
  </rect>
</g><g transform="rotate(68.4 50 50)">
  <rect x="42.5" y="2" rx="7.5" ry="15" width="15" height="30" fill="#645481">
    <animate attributeName="opacity" values="1;0" keyTimes="0;1" dur="1.6949152542372883s" begin="-1.3559322033898304s" repeatCount="indefinite"></animate>
  </rect>
</g><g transform="rotate(72 50 50)">
  <rect x="42.5" y="2" rx="7.5" ry="15" width="15" height="30" fill="#220b09">
    <animate attributeName="opacity" values="1;0" keyTimes="0;1" dur="1.6949152542372883s" begin="-1.3389830508474576s" repeatCount="indefinite"></animate>
  </rect>
</g><g transform="rotate(75.6 50 50)">
  <rect x="42.5" y="2" rx="7.5" ry="15" width="15" height="30" fill="#d34c31">
    <animate attributeName="opacity" values="1;0" keyTimes="0;1" dur="1.6949152542372883s" begin="-1.3220338983050848s" repeatCount="indefinite"></animate>
  </rect>
</g><g transform="rotate(79.2 50 50)">
  <rect x="42.5" y="2" rx="7.5" ry="15" width="15" height="30" fill="#e88432">
    <animate attributeName="opacity" values="1;0" keyTimes="0;1" dur="1.6949152542372883s" begin="-1.305084745762712s" repeatCount="indefinite"></animate>
  </rect>
</g><g transform="rotate(82.8 50 50)">
  <rect x="42.5" y="2" rx="7.5" ry="15" width="15" height="30" fill="#ff312d">
    <animate attributeName="opacity" values="1;0" keyTimes="0;1" dur="1.6949152542372883s" begin="-1.2881355932203389s" repeatCount="indefinite"></animate>
  </rect>
</g><g transform="rotate(86.4 50 50)">
  <rect x="42.5" y="2" rx="7.5" ry="15" width="15" height="30" fill="#f5c037">
    <animate attributeName="opacity" values="1;0" keyTimes="0;1" dur="1.6949152542372883s" begin="-1.271186440677966s" repeatCount="indefinite"></animate>
  </rect>
</g><g transform="rotate(90 50 50)">
  <rect x="42.5" y="2" rx="7.5" ry="15" width="15" height="30" fill="#e89788">
    <animate attributeName="opacity" values="1;0" keyTimes="0;1" dur="1.6949152542372883s" begin="-1.2542372881355932s" repeatCount="indefinite"></animate>
  </rect>
</g><g transform="rotate(93.6 50 50)">
  <rect x="42.5" y="2" rx="7.5" ry="15" width="15" height="30" fill="#fd3262">
    <animate attributeName="opacity" values="1;0" keyTimes="0;1" dur="1.6949152542372883s" begin="-1.2372881355932204s" repeatCount="indefinite"></animate>
  </rect>
</g><g transform="rotate(97.2 50 50)">
  <rect x="42.5" y="2" rx="7.5" ry="15" width="15" height="30" fill="#f0c3a9">
    <animate attributeName="opacity" values="1;0" keyTimes="0;1" dur="1.6949152542372883s" begin="-1.2203389830508475s" repeatCount="indefinite"></animate>
  </rect>
</g><g transform="rotate(100.8 50 50)">
  <rect x="42.5" y="2" rx="7.5" ry="15" width="15" height="30" fill="#9d9aca">
    <animate attributeName="opacity" values="1;0" keyTimes="0;1" dur="1.6949152542372883s" begin="-1.2033898305084745s" repeatCount="indefinite"></animate>
  </rect>
</g><g transform="rotate(104.4 50 50)">
  <rect x="42.5" y="2" rx="7.5" ry="15" width="15" height="30" fill="#645481">
    <animate attributeName="opacity" values="1;0" keyTimes="0;1" dur="1.6949152542372883s" begin="-1.1864406779661016s" repeatCount="indefinite"></animate>
  </rect>
</g><g transform="rotate(108 50 50)">
  <rect x="42.5" y="2" rx="7.5" ry="15" width="15" height="30" fill="#220b09">
    <animate attributeName="opacity" values="1;0" keyTimes="0;1" dur="1.6949152542372883s" begin="-1.1694915254237288s" repeatCount="indefinite"></animate>
  </rect>
</g><g transform="rotate(111.6 50 50)">
  <rect x="42.5" y="2" rx="7.5" ry="15" width="15" height="30" fill="#d34c31">
    <animate attributeName="opacity" values="1;0" keyTimes="0;1" dur="1.6949152542372883s" begin="-1.152542372881356s" repeatCount="indefinite"></animate>
  </rect>
</g><g transform="rotate(115.2 50 50)">
  <rect x="42.5" y="2" rx="7.5" ry="15" width="15" height="30" fill="#e88432">
    <animate attributeName="opacity" values="1;0" keyTimes="0;1" dur="1.6949152542372883s" begin="-1.1355932203389831s" repeatCount="indefinite"></animate>
  </rect>
</g><g transform="rotate(118.8 50 50)">
  <rect x="42.5" y="2" rx="7.5" ry="15" width="15" height="30" fill="#ff312d">
    <animate attributeName="opacity" values="1;0" keyTimes="0;1" dur="1.6949152542372883s" begin="-1.11864406779661s" repeatCount="indefinite"></animate>
  </rect>
</g><g transform="rotate(122.4 50 50)">
  <rect x="42.5" y="2" rx="7.5" ry="15" width="15" height="30" fill="#f5c037">
    <animate attributeName="opacity" values="1;0" keyTimes="0;1" dur="1.6949152542372883s" begin="-1.1016949152542372s" repeatCount="indefinite"></animate>
  </rect>
</g><g transform="rotate(126 50 50)">
  <rect x="42.5" y="2" rx="7.5" ry="15" width="15" height="30" fill="#e89788">
    <animate attributeName="opacity" values="1;0" keyTimes="0;1" dur="1.6949152542372883s" begin="-1.0847457627118644s" repeatCount="indefinite"></animate>
  </rect>
</g><g transform="rotate(129.6 50 50)">
  <rect x="42.5" y="2" rx="7.5" ry="15" width="15" height="30" fill="#fd3262">
    <animate attributeName="opacity" values="1;0" keyTimes="0;1" dur="1.6949152542372883s" begin="-1.0677966101694916s" repeatCount="indefinite"></animate>
  </rect>
</g><g transform="rotate(133.2 50 50)">
  <rect x="42.5" y="2" rx="7.5" ry="15" width="15" height="30" fill="#f0c3a9">
    <animate attributeName="opacity" values="1;0" keyTimes="0;1" dur="1.6949152542372883s" begin="-1.0508474576271187s" repeatCount="indefinite"></animate>
  </rect>
</g><g transform="rotate(136.8 50 50)">
  <rect x="42.5" y="2" rx="7.5" ry="15" width="15" height="30" fill="#9d9aca">
    <animate attributeName="opacity" values="1;0" keyTimes="0;1" dur="1.6949152542372883s" begin="-1.0338983050847457s" repeatCount="indefinite"></animate>
  </rect>
</g><g transform="rotate(140.4 50 50)">
  <rect x="42.5" y="2" rx="7.5" ry="15" width="15" height="30" fill="#645481">
    <animate attributeName="opacity" values="1;0" keyTimes="0;1" dur="1.6949152542372883s" begin="-1.0169491525423728s" repeatCount="indefinite"></animate>
  </rect>
</g><g transform="rotate(144 50 50)">
  <rect x="42.5" y="2" rx="7.5" ry="15" width="15" height="30" fill="#220b09">
    <animate attributeName="opacity" values="1;0" keyTimes="0;1" dur="1.6949152542372883s" begin="-1s" repeatCount="indefinite"></animate>
  </rect>
</g><g transform="rotate(147.6 50 50)">
  <rect x="42.5" y="2" rx="7.5" ry="15" width="15" height="30" fill="#d34c31">
    <animate attributeName="opacity" values="1;0" keyTimes="0;1" dur="1.6949152542372883s" begin="-0.9830508474576272s" repeatCount="indefinite"></animate>
  </rect>
</g><g transform="rotate(151.2 50 50)">
  <rect x="42.5" y="2" rx="7.5" ry="15" width="15" height="30" fill="#e88432">
    <animate attributeName="opacity" values="1;0" keyTimes="0;1" dur="1.6949152542372883s" begin="-0.9661016949152542s" repeatCount="indefinite"></animate>
  </rect>
</g><g transform="rotate(154.8 50 50)">
  <rect x="42.5" y="2" rx="7.5" ry="15" width="15" height="30" fill="#ff312d">
    <animate attributeName="opacity" values="1;0" keyTimes="0;1" dur="1.6949152542372883s" begin="-0.9491525423728814s" repeatCount="indefinite"></animate>
  </rect>
</g><g transform="rotate(158.4 50 50)">
  <rect x="42.5" y="2" rx="7.5" ry="15" width="15" height="30" fill="#f5c037">
    <animate attributeName="opacity" values="1;0" keyTimes="0;1" dur="1.6949152542372883s" begin="-0.9322033898305084s" repeatCount="indefinite"></animate>
  </rect>
</g><g transform="rotate(162 50 50)">
  <rect x="42.5" y="2" rx="7.5" ry="15" width="15" height="30" fill="#e89788">
    <animate attributeName="opacity" values="1;0" keyTimes="0;1" dur="1.6949152542372883s" begin="-0.9152542372881356s" repeatCount="indefinite"></animate>
  </rect>
</g><g transform="rotate(165.6 50 50)">
  <rect x="42.5" y="2" rx="7.5" ry="15" width="15" height="30" fill="#fd3262">
    <animate attributeName="opacity" values="1;0" keyTimes="0;1" dur="1.6949152542372883s" begin="-0.8983050847457628s" repeatCount="indefinite"></animate>
  </rect>
</g><g transform="rotate(169.2 50 50)">
  <rect x="42.5" y="2" rx="7.5" ry="15" width="15" height="30" fill="#f0c3a9">
    <animate attributeName="opacity" values="1;0" keyTimes="0;1" dur="1.6949152542372883s" begin="-0.8813559322033898s" repeatCount="indefinite"></animate>
  </rect>
</g><g transform="rotate(172.8 50 50)">
  <rect x="42.5" y="2" rx="7.5" ry="15" width="15" height="30" fill="#9d9aca">
    <animate attributeName="opacity" values="1;0" keyTimes="0;1" dur="1.6949152542372883s" begin="-0.864406779661017s" repeatCount="indefinite"></animate>
  </rect>
</g><g transform="rotate(176.4 50 50)">
  <rect x="42.5" y="2" rx="7.5" ry="15" width="15" height="30" fill="#645481">
    <animate attributeName="opacity" values="1;0" keyTimes="0;1" dur="1.6949152542372883s" begin="-0.847457627118644s" repeatCount="indefinite"></animate>
  </rect>
</g><g transform="rotate(180 50 50)">
  <rect x="42.5" y="2" rx="7.5" ry="15" width="15" height="30" fill="#220b09">
    <animate attributeName="opacity" values="1;0" keyTimes="0;1" dur="1.6949152542372883s" begin="-0.8305084745762712s" repeatCount="indefinite"></animate>
  </rect>
</g><g transform="rotate(183.6 50 50)">
  <rect x="42.5" y="2" rx="7.5" ry="15" width="15" height="30" fill="#d34c31">
    <animate attributeName="opacity" values="1;0" keyTimes="0;1" dur="1.6949152542372883s" begin="-0.8135593220338984s" repeatCount="indefinite"></animate>
  </rect>
</g><g transform="rotate(187.2 50 50)">
  <rect x="42.5" y="2" rx="7.5" ry="15" width="15" height="30" fill="#e88432">
    <animate attributeName="opacity" values="1;0" keyTimes="0;1" dur="1.6949152542372883s" begin="-0.7966101694915254s" repeatCount="indefinite"></animate>
  </rect>
</g><g transform="rotate(190.8 50 50)">
  <rect x="42.5" y="2" rx="7.5" ry="15" width="15" height="30" fill="#ff312d">
    <animate attributeName="opacity" values="1;0" keyTimes="0;1" dur="1.6949152542372883s" begin="-0.7796610169491526s" repeatCount="indefinite"></animate>
  </rect>
</g><g transform="rotate(194.4 50 50)">
  <rect x="42.5" y="2" rx="7.5" ry="15" width="15" height="30" fill="#f5c037">
    <animate attributeName="opacity" values="1;0" keyTimes="0;1" dur="1.6949152542372883s" begin="-0.7627118644067796s" repeatCount="indefinite"></animate>
  </rect>
</g><g transform="rotate(198 50 50)">
  <rect x="42.5" y="2" rx="7.5" ry="15" width="15" height="30" fill="#e89788">
    <animate attributeName="opacity" values="1;0" keyTimes="0;1" dur="1.6949152542372883s" begin="-0.7457627118644068s" repeatCount="indefinite"></animate>
  </rect>
</g><g transform="rotate(201.6 50 50)">
  <rect x="42.5" y="2" rx="7.5" ry="15" width="15" height="30" fill="#fd3262">
    <animate attributeName="opacity" values="1;0" keyTimes="0;1" dur="1.6949152542372883s" begin="-0.7288135593220338s" repeatCount="indefinite"></animate>
  </rect>
</g><g transform="rotate(205.2 50 50)">
  <rect x="42.5" y="2" rx="7.5" ry="15" width="15" height="30" fill="#f0c3a9">
    <animate attributeName="opacity" values="1;0" keyTimes="0;1" dur="1.6949152542372883s" begin="-0.711864406779661s" repeatCount="indefinite"></animate>
  </rect>
</g><g transform="rotate(208.8 50 50)">
  <rect x="42.5" y="2" rx="7.5" ry="15" width="15" height="30" fill="#9d9aca">
    <animate attributeName="opacity" values="1;0" keyTimes="0;1" dur="1.6949152542372883s" begin="-0.6949152542372882s" repeatCount="indefinite"></animate>
  </rect>
</g><g transform="rotate(212.4 50 50)">
  <rect x="42.5" y="2" rx="7.5" ry="15" width="15" height="30" fill="#645481">
    <animate attributeName="opacity" values="1;0" keyTimes="0;1" dur="1.6949152542372883s" begin="-0.6779661016949152s" repeatCount="indefinite"></animate>
  </rect>
</g><g transform="rotate(216 50 50)">
  <rect x="42.5" y="2" rx="7.5" ry="15" width="15" height="30" fill="#220b09">
    <animate attributeName="opacity" values="1;0" keyTimes="0;1" dur="1.6949152542372883s" begin="-0.6610169491525424s" repeatCount="indefinite"></animate>
  </rect>
</g><g transform="rotate(219.6 50 50)">
  <rect x="42.5" y="2" rx="7.5" ry="15" width="15" height="30" fill="#d34c31">
    <animate attributeName="opacity" values="1;0" keyTimes="0;1" dur="1.6949152542372883s" begin="-0.6440677966101694s" repeatCount="indefinite"></animate>
  </rect>
</g><g transform="rotate(223.2 50 50)">
  <rect x="42.5" y="2" rx="7.5" ry="15" width="15" height="30" fill="#e88432">
    <animate attributeName="opacity" values="1;0" keyTimes="0;1" dur="1.6949152542372883s" begin="-0.6271186440677966s" repeatCount="indefinite"></animate>
  </rect>
</g><g transform="rotate(226.8 50 50)">
  <rect x="42.5" y="2" rx="7.5" ry="15" width="15" height="30" fill="#ff312d">
    <animate attributeName="opacity" values="1;0" keyTimes="0;1" dur="1.6949152542372883s" begin="-0.6101694915254238s" repeatCount="indefinite"></animate>
  </rect>
</g><g transform="rotate(230.4 50 50)">
  <rect x="42.5" y="2" rx="7.5" ry="15" width="15" height="30" fill="#f5c037">
    <animate attributeName="opacity" values="1;0" keyTimes="0;1" dur="1.6949152542372883s" begin="-0.5932203389830508s" repeatCount="indefinite"></animate>
  </rect>
</g><g transform="rotate(234 50 50)">
  <rect x="42.5" y="2" rx="7.5" ry="15" width="15" height="30" fill="#e89788">
    <animate attributeName="opacity" values="1;0" keyTimes="0;1" dur="1.6949152542372883s" begin="-0.576271186440678s" repeatCount="indefinite"></animate>
  </rect>
</g><g transform="rotate(237.6 50 50)">
  <rect x="42.5" y="2" rx="7.5" ry="15" width="15" height="30" fill="#fd3262">
    <animate attributeName="opacity" values="1;0" keyTimes="0;1" dur="1.6949152542372883s" begin="-0.559322033898305s" repeatCount="indefinite"></animate>
  </rect>
</g><g transform="rotate(241.2 50 50)">
  <rect x="42.5" y="2" rx="7.5" ry="15" width="15" height="30" fill="#f0c3a9">
    <animate attributeName="opacity" values="1;0" keyTimes="0;1" dur="1.6949152542372883s" begin="-0.5423728813559322s" repeatCount="indefinite"></animate>
  </rect>
</g><g transform="rotate(244.8 50 50)">
  <rect x="42.5" y="2" rx="7.5" ry="15" width="15" height="30" fill="#9d9aca">
    <animate attributeName="opacity" values="1;0" keyTimes="0;1" dur="1.6949152542372883s" begin="-0.5254237288135594s" repeatCount="indefinite"></animate>
  </rect>
</g><g transform="rotate(248.4 50 50)">
  <rect x="42.5" y="2" rx="7.5" ry="15" width="15" height="30" fill="#645481">
    <animate attributeName="opacity" values="1;0" keyTimes="0;1" dur="1.6949152542372883s" begin="-0.5084745762711864s" repeatCount="indefinite"></animate>
  </rect>
</g><g transform="rotate(252 50 50)">
  <rect x="42.5" y="2" rx="7.5" ry="15" width="15" height="30" fill="#220b09">
    <animate attributeName="opacity" values="1;0" keyTimes="0;1" dur="1.6949152542372883s" begin="-0.4915254237288136s" repeatCount="indefinite"></animate>
  </rect>
</g><g transform="rotate(255.6 50 50)">
  <rect x="42.5" y="2" rx="7.5" ry="15" width="15" height="30" fill="#d34c31">
    <animate attributeName="opacity" values="1;0" keyTimes="0;1" dur="1.6949152542372883s" begin="-0.4745762711864407s" repeatCount="indefinite"></animate>
  </rect>
</g><g transform="rotate(259.2 50 50)">
  <rect x="42.5" y="2" rx="7.5" ry="15" width="15" height="30" fill="#e88432">
    <animate attributeName="opacity" values="1;0" keyTimes="0;1" dur="1.6949152542372883s" begin="-0.4576271186440678s" repeatCount="indefinite"></animate>
  </rect>
</g><g transform="rotate(262.8 50 50)">
  <rect x="42.5" y="2" rx="7.5" ry="15" width="15" height="30" fill="#ff312d">
    <animate attributeName="opacity" values="1;0" keyTimes="0;1" dur="1.6949152542372883s" begin="-0.4406779661016949s" repeatCount="indefinite"></animate>
  </rect>
</g><g transform="rotate(266.4 50 50)">
  <rect x="42.5" y="2" rx="7.5" ry="15" width="15" height="30" fill="#f5c037">
    <animate attributeName="opacity" values="1;0" keyTimes="0;1" dur="1.6949152542372883s" begin="-0.423728813559322s" repeatCount="indefinite"></animate>
  </rect>
</g><g transform="rotate(270 50 50)">
  <rect x="42.5" y="2" rx="7.5" ry="15" width="15" height="30" fill="#e89788">
    <animate attributeName="opacity" values="1;0" keyTimes="0;1" dur="1.6949152542372883s" begin="-0.4067796610169492s" repeatCount="indefinite"></animate>
  </rect>
</g><g transform="rotate(273.6 50 50)">
  <rect x="42.5" y="2" rx="7.5" ry="15" width="15" height="30" fill="#fd3262">
    <animate attributeName="opacity" values="1;0" keyTimes="0;1" dur="1.6949152542372883s" begin="-0.3898305084745763s" repeatCount="indefinite"></animate>
  </rect>
</g><g transform="rotate(277.2 50 50)">
  <rect x="42.5" y="2" rx="7.5" ry="15" width="15" height="30" fill="#f0c3a9">
    <animate attributeName="opacity" values="1;0" keyTimes="0;1" dur="1.6949152542372883s" begin="-0.3728813559322034s" repeatCount="indefinite"></animate>
  </rect>
</g><g transform="rotate(280.8 50 50)">
  <rect x="42.5" y="2" rx="7.5" ry="15" width="15" height="30" fill="#9d9aca">
    <animate attributeName="opacity" values="1;0" keyTimes="0;1" dur="1.6949152542372883s" begin="-0.3559322033898305s" repeatCount="indefinite"></animate>
  </rect>
</g><g transform="rotate(284.4 50 50)">
  <rect x="42.5" y="2" rx="7.5" ry="15" width="15" height="30" fill="#645481">
    <animate attributeName="opacity" values="1;0" keyTimes="0;1" dur="1.6949152542372883s" begin="-0.3389830508474576s" repeatCount="indefinite"></animate>
  </rect>
</g><g transform="rotate(288 50 50)">
  <rect x="42.5" y="2" rx="7.5" ry="15" width="15" height="30" fill="#220b09">
    <animate attributeName="opacity" values="1;0" keyTimes="0;1" dur="1.6949152542372883s" begin="-0.3220338983050847s" repeatCount="indefinite"></animate>
  </rect>
</g><g transform="rotate(291.6 50 50)">
  <rect x="42.5" y="2" rx="7.5" ry="15" width="15" height="30" fill="#d34c31">
    <animate attributeName="opacity" values="1;0" keyTimes="0;1" dur="1.6949152542372883s" begin="-0.3050847457627119s" repeatCount="indefinite"></animate>
  </rect>
</g><g transform="rotate(295.2 50 50)">
  <rect x="42.5" y="2" rx="7.5" ry="15" width="15" height="30" fill="#e88432">
    <animate attributeName="opacity" values="1;0" keyTimes="0;1" dur="1.6949152542372883s" begin="-0.288135593220339s" repeatCount="indefinite"></animate>
  </rect>
</g><g transform="rotate(298.8 50 50)">
  <rect x="42.5" y="2" rx="7.5" ry="15" width="15" height="30" fill="#ff312d">
    <animate attributeName="opacity" values="1;0" keyTimes="0;1" dur="1.6949152542372883s" begin="-0.2711864406779661s" repeatCount="indefinite"></animate>
  </rect>
</g><g transform="rotate(302.4 50 50)">
  <rect x="42.5" y="2" rx="7.5" ry="15" width="15" height="30" fill="#f5c037">
    <animate attributeName="opacity" values="1;0" keyTimes="0;1" dur="1.6949152542372883s" begin="-0.2542372881355932s" repeatCount="indefinite"></animate>
  </rect>
</g><g transform="rotate(306 50 50)">
  <rect x="42.5" y="2" rx="7.5" ry="15" width="15" height="30" fill="#e89788">
    <animate attributeName="opacity" values="1;0" keyTimes="0;1" dur="1.6949152542372883s" begin="-0.23728813559322035s" repeatCount="indefinite"></animate>
  </rect>
</g><g transform="rotate(309.6 50 50)">
  <rect x="42.5" y="2" rx="7.5" ry="15" width="15" height="30" fill="#fd3262">
    <animate attributeName="opacity" values="1;0" keyTimes="0;1" dur="1.6949152542372883s" begin="-0.22033898305084745s" repeatCount="indefinite"></animate>
  </rect>
</g><g transform="rotate(313.2 50 50)">
  <rect x="42.5" y="2" rx="7.5" ry="15" width="15" height="30" fill="#f0c3a9">
    <animate attributeName="opacity" values="1;0" keyTimes="0;1" dur="1.6949152542372883s" begin="-0.2033898305084746s" repeatCount="indefinite"></animate>
  </rect>
</g><g transform="rotate(316.8 50 50)">
  <rect x="42.5" y="2" rx="7.5" ry="15" width="15" height="30" fill="#9d9aca">
    <animate attributeName="opacity" values="1;0" keyTimes="0;1" dur="1.6949152542372883s" begin="-0.1864406779661017s" repeatCount="indefinite"></animate>
  </rect>
</g><g transform="rotate(320.4 50 50)">
  <rect x="42.5" y="2" rx="7.5" ry="15" width="15" height="30" fill="#645481">
    <animate attributeName="opacity" values="1;0" keyTimes="0;1" dur="1.6949152542372883s" begin="-0.1694915254237288s" repeatCount="indefinite"></animate>
  </rect>
</g><g transform="rotate(324 50 50)">
  <rect x="42.5" y="2" rx="7.5" ry="15" width="15" height="30" fill="#220b09">
    <animate attributeName="opacity" values="1;0" keyTimes="0;1" dur="1.6949152542372883s" begin="-0.15254237288135594s" repeatCount="indefinite"></animate>
  </rect>
</g><g transform="rotate(327.6 50 50)">
  <rect x="42.5" y="2" rx="7.5" ry="15" width="15" height="30" fill="#d34c31">
    <animate attributeName="opacity" values="1;0" keyTimes="0;1" dur="1.6949152542372883s" begin="-0.13559322033898305s" repeatCount="indefinite"></animate>
  </rect>
</g><g transform="rotate(331.2 50 50)">
  <rect x="42.5" y="2" rx="7.5" ry="15" width="15" height="30" fill="#e88432">
    <animate attributeName="opacity" values="1;0" keyTimes="0;1" dur="1.6949152542372883s" begin="-0.11864406779661017s" repeatCount="indefinite"></animate>
  </rect>
</g><g transform="rotate(334.8 50 50)">
  <rect x="42.5" y="2" rx="7.5" ry="15" width="15" height="30" fill="#ff312d">
    <animate attributeName="opacity" values="1;0" keyTimes="0;1" dur="1.6949152542372883s" begin="-0.1016949152542373s" repeatCount="indefinite"></animate>
  </rect>
</g><g transform="rotate(338.4 50 50)">
  <rect x="42.5" y="2" rx="7.5" ry="15" width="15" height="30" fill="#f5c037">
    <animate attributeName="opacity" values="1;0" keyTimes="0;1" dur="1.6949152542372883s" begin="-0.0847457627118644s" repeatCount="indefinite"></animate>
  </rect>
</g><g transform="rotate(342 50 50)">
  <rect x="42.5" y="2" rx="7.5" ry="15" width="15" height="30" fill="#e89788">
    <animate attributeName="opacity" values="1;0" keyTimes="0;1" dur="1.6949152542372883s" begin="-0.06779661016949153s" repeatCount="indefinite"></animate>
  </rect>
</g><g transform="rotate(345.6 50 50)">
  <rect x="42.5" y="2" rx="7.5" ry="15" width="15" height="30" fill="#fd3262">
    <animate attributeName="opacity" values="1;0" keyTimes="0;1" dur="1.6949152542372883s" begin="-0.05084745762711865s" repeatCount="indefinite"></animate>
  </rect>
</g><g transform="rotate(349.2 50 50)">
  <rect x="42.5" y="2" rx="7.5" ry="15" width="15" height="30" fill="#f0c3a9">
    <animate attributeName="opacity" values="1;0" keyTimes="0;1" dur="1.6949152542372883s" begin="-0.03389830508474576s" repeatCount="indefinite"></animate>
  </rect>
</g><g transform="rotate(352.8 50 50)">
  <rect x="42.5" y="2" rx="7.5" ry="15" width="15" height="30" fill="#9d9aca">
    <animate attributeName="opacity" values="1;0" keyTimes="0;1" dur="1.6949152542372883s" begin="-0.01694915254237288s" repeatCount="indefinite"></animate>
  </rect>
</g><g transform="rotate(356.4 50 50)">
  <rect x="42.5" y="2" rx="7.5" ry="15" width="15" height="30" fill="#645481">
    <animate attributeName="opacity" values="1;0" keyTimes="0;1" dur="1.6949152542372883s" begin="0s" repeatCount="indefinite"></animate>
  </rect>
</g>
<!-- [ldio] generated by https://loading.io/ --></svg>