<!-- Uploaded to: SVG Repo, www.svgrepo.com, Generator: SVG Repo Mixer Tools -->
<!-- Modified by Said Bakr @saidbakr -->
<svg fill="#000000" version="1.1" id="Capa_1" xmlns="http://www.w3.org/2000/svg" xmlns:xlink="http://www.w3.org/1999/xlink" 
	 width="256" height="256" viewBox="0 0 311.772 311.772"
	 xml:space="preserve">		
	<g>
		<path d="M222.566,108.636C228.926,41.79,190.599,6.078,160.052,0.878c-25.159-4.282-41.66,9.115-41.66,9.115l-9.727,79.115
			C41.777,82.717,6.044,121.055,0.844,151.609c-4.282,25.159,9.115,41.665,9.115,41.665l79.223,9.74
			c-6.421,66.925,31.936,102.674,62.506,107.879c25.157,4.282,41.663-9.112,41.663-9.112l9.739-79.239
			c66.899,6.402,102.638-31.946,107.837-62.506c4.282-25.157-9.112-41.666-9.112-41.666L222.566,108.636z M202.901,222.326
		L89.404,202.872L108.85,89.443l113.5,19.456L202.901,222.326z"/>		
		<animate attributeName="fill" values="#300;#600;#a00;#f00;#a00;#600" dur="2s" repeatCount="indefinite" />
		<animateTransform attributeName="transform" type="rotate" from="0 155.886 155.886" to="-360 155.886 155.886" dur="1700ms" repeatCount="indefinite"></animateTransform>		
		</g>
		<g>
		<polygon points="200.17,218.012 217.777,112.351 112.09,93.952 93.62,199.692"/>		        
		<animate attributeName="fill" values="#06f;#06a;#066;#063;#066;#06a;#06f" dur="2s" repeatCount="indefinite" />
		<animateTransform attributeName="transform" type="rotate" from="-360 155.886 155.886" to="0 155.886 155.886" dur="1700ms" repeatCount="indefinite"></animateTransform>		
	</g>	
</svg>
